<?xml version="1.0" encoding="UTF-8" standalone="no" ?>
<!DOCTYPE svg PUBLIC "-//W3C//DTD SVG 1.1//EN" "http://www.w3.org/Graphics/SVG/1.1/DTD/svg11.dtd">
<svg xmlns="http://www.w3.org/2000/svg" xmlns:xlink="http://www.w3.org/1999/xlink" version="1.1" width="15" height="15" viewBox="0 0 15 15" xml:space="preserve">
<desc>Created with Fabric.js 4.6.0</desc>
<defs>
</defs>
<g transform="matrix(0.18 0 0 0.18 4.43 8.69)" id="iPeGW5sO_8sjDp2aVLUet"  >
<path style="stroke: rgb(255,255,255); stroke-width: 1; stroke-dasharray: none; stroke-linecap: butt; stroke-dashoffset: 0; stroke-linejoin: miter; stroke-miterlimit: 4; fill: rgb(0,0,0); fill-rule: nonzero; opacity: 1;" vector-effect="non-scaling-stroke"  transform=" translate(-24.85, -39.94)" d="M 48.3 8.7 C 47.4 8.2 46.3 8.1 45.4 8.6 L 22.4 23.4 L 16 23.4 C 7.3 23.4 0 31 0 40 C 0 48.8 7.2 56 16 56 L 22.3 56 C 22.3 56 45.3 71.3 45.3 71.3 C 45.699999999999996 71.5 46.199999999999996 71.6 46.699999999999996 71.6 C 47.199999999999996 71.6 47.8 71.5 48.3 71.19999999999999 C 49.199999999999996 70.69999999999999 49.699999999999996 69.69999999999999 49.699999999999996 68.6 L 49.699999999999996 11.3 C 49.7 10.2 49.2 9.3 48.3 8.7 z" stroke-linecap="round" />
</g>
<g transform="matrix(0.18 0 0 0.18 4.43 8.62)" id="-WKY5XbMnEVxr2k151-Er"  >
<path style="stroke: none; stroke-width: 1; stroke-dasharray: none; stroke-linecap: butt; stroke-dashoffset: 0; stroke-linejoin: miter; stroke-miterlimit: 4; fill: rgb(0,0,0); fill-rule: nonzero; opacity: 1;" vector-effect="non-scaling-stroke"  transform=" translate(-24.9, -40.05)" d="M 16 29.7 L 22.3 29.7 L 22.3 50.4 L 16 50.4 C 10.5 50.3 6 45.8 6 40.3 C 6 34.5 10.6 29.7 16 29.7 z M 28.3 51.8 L 43.8 61.9 L 43.8 18.2 L 28.3 28.2 L 28.3 51.8 z" stroke-linecap="round" />
</g>
<g transform="matrix(0.18 0 0 0.18 12 8.61)" id="_udsZvLFhjd__RAnxtQX9"  >
<path style="stroke: none; stroke-width: 1; stroke-dasharray: none; stroke-linecap: butt; stroke-dashoffset: 0; stroke-linejoin: miter; stroke-miterlimit: 4; fill: rgb(0,0,0); fill-rule: nonzero; opacity: 1;" vector-effect="non-scaling-stroke"  transform=" translate(-66.53, -39.99)" d="M 80 40 C 80 53.8 70.2 65.4 56.6 67.7 C 56.4 67.7 56.300000000000004 67.7 56.1 67.7 C 54.7 67.7 53.4 66.7 53.2 65.2 C 52.900000000000006 63.6 54 62 55.7 61.800000000000004 C 66.3 60 74 50.8 74 40 C 74 29.2 66.2 20 55.6 18.2 C 54 17.9 52.9 16.4 53.1 14.799999999999999 C 53.4 13.2 54.9 12.099999999999998 56.5 12.299999999999999 C 70.2 14.6 80 26.2 80 40 z M 55.6 48.6 C 54 48.9 52.9 50.4 53.1 52 C 53.300000000000004 53.5 54.6 54.5 56 54.5 C 56.2 54.5 56.3 54.5 56.5 54.5 C 63.6 53.3 68.8 47.2 68.8 40 C 68.8 32.8 63.599999999999994 26.7 56.5 25.5 C 54.9 25.2 53.3 26.3 53.1 28 C 52.800000000000004 29.6 53.9 31.2 55.6 31.4 C 59.800000000000004 32.1 62.9 35.699999999999996 62.9 40 C 62.9 44.3 59.8 47.9 55.6 48.6 z" stroke-linecap="round" />
</g>
<g transform="matrix(1 0 0 1 381.37 217.78)" id="TfZy3cSq5aXGn0xtiF9ZF"  >
<path style="stroke: rgb(0,0,0); stroke-width: 1; stroke-dasharray: none; stroke-linecap: butt; stroke-dashoffset: 0; stroke-linejoin: miter; stroke-miterlimit: 4; fill: rgb(255,255,255); fill-opacity: 0; fill-rule: nonzero; opacity: 1;" vector-effect="non-scaling-stroke"  transform=" translate(0, 0)" d="M 0 0" stroke-linecap="round" />
</g>
</svg>